:SAMPLES-PER-SECOND 30
:FULLY-SPECIFIED
:DEGREES
342
root  34.84234547 36.57384857 -14.22736251 9.439006805 -3.261287689 3.205323696
lowerback  -8.302511215 -0.4647471011 -0.4468319714
upperback  -3.988539934 -0.1133349985 -3.30911994
thorax  0.5229020119 0.1040600017 -3.175070047
lowerneck  -14.9282999 -4.327579975 -3.259190083
upperneck  16.99629974 -6.297120571 7.235219955
head  8.068840027 -2.342039824 2.241709948
lclavicle  0 -4.497500157e-015 -2.743230041e-014
lhumerus  -48.65370178 30.8451004 62.3268013
lradius  -0.03582906723 -6.507048965e-006 29.97310066
lwrist  3.192251654e-007 -3.790274832e-007 -28.01280212
lhand  -4.402997132e-031 -36.68019867 -10.61170006
lfingers  90 7.125020027 -90
lthumb  94.69989888 -25.45635309 100.8282926
rclavicle  0 -4.497500157e-015 -2.743230041e-014
rhumerus  -51.01119995 -24.84770012 -53.83739853
rradius  -5.16745672e-007 2.214343908e-008 85.43060303
rwrist  0.0006954420824 -0.004670973402 -174.4409943
rhand  -1.773584488e-031 5.451499939 -7.690320015
rfingers  -90 -7.125020027 -90
rthumb  -84.90870268 -8.467145236 -58.82237132
rfemur  -10.64891624 14.92629433 12.95628643
rtibia  0.07922428846 -0.6905756593 18.08765984
rfoot  1.233067274 -21.3005352 -36.13879395
rtoes  4.101678926 19.59176653 -102.0713728
lfemur  -4.283009052 -15.93962479 -21.80410194
ltibia  6.022339344 0.2126858681 8.493825912
lfoot  0.2482566237 -22.98566628 35.38069534
ltoes  -8.491862643 -18.1748958 -115.5789957
343
root  34.84089468 36.57307963 -14.22539508 9.419818878 -3.309216261 3.214784861
lowerback  -8.311108589 -0.4605929554 -0.4175414741
upperback  -4.000669956 -0.1103070006 -3.295670033
thorax  0.5151370168 0.105208002 -3.177429914
lowerneck  -14.95030022 -4.293560028 -3.211819887
upperneck  17.03580093 -6.25744009 7.214260101
head  8.081419945 -2.320080042 2.231659889
lclavicle  0 -4.497500157e-015 -2.743230041e-014
lhumerus  -48.56499863 30.80060005 62.39429855
lradius  -0.03262409195 -6.507048965e-006 29.99250031
lwrist  3.192251654e-007 -3.790274832e-007 -27.91850281
lhand  -0 -36.76010132 -10.61130047
lfingers  90 7.125020027 -90
lthumb  94.73710462 -25.45315864 100.9135909
rclavicle  0 -4.497500157e-015 -2.743230041e-014
rhumerus  -51.02470016 -25.11829948 -53.9695015
rradius  -5.16745672e-007 2.214343908e-008 83.89689636
rwrist  0.0006954420824 -0.004670973402 -174.173996
rhand  -1.775222904e-031 5.980060101 -7.840600014
rfingers  -90 -7.125020027 -90
rthumb  -84.86287562 -8.376157004 -58.31927664
rfemur  -10.63530922 14.93246841 12.95786476
rtibia  0.07930765301 -0.7155057788 18.09490204
rfoot  1.229979277 -21.36072159 -36.11074448
rtoes  4.12145069 19.58777289 -102.1303431
lfemur  -4.165514469 -15.87134171 -21.86734962
ltibia  6.107322216 0.2175153196 8.33450985
lfoot  0.2504321337 -22.94547844 35.3980484
ltoes  -8.483321857 -18.17877762 -115.5516171
344
root  34.83841363 36.57269816 -14.22373103 9.407039642 -3.364416838 3.204177856
lowerback  -8.310150146 -0.4528499544 -0.3999252319
upperback  -4.014770031 -0.1009989977 -3.292860031
thorax  0.5004140139 0.1098320037 -3.183680058
lowerneck  -14.94639969 -4.27944994 -3.190900087
upperneck  17.04850006 -6.243470192 7.221710205
head  8.083809853 -2.310389996 2.232599974
lclavicle  0 -4.497500157e-015 -2.743230041e-014
lhumerus  -48.45240021 30.6406002 62.53760147
lradius  -0.02920006216 -6.507048965e-006 30.0401001
lwrist  3.192251654e-007 -3.790274832e-007 -27.72909927
lhand  -4.408982612e-031 -36.78450012 -10.63850021
lfingers  90 7.125020027 -90
lthumb  94.75424976 -25.47909491 100.9421605
rclavicle  0 -4.497500157e-015 -2.743230041e-014
rhumerus  -50.9756012 -25.32789803 -54.10800171
rradius  -5.16745672e-007 2.214343908e-008 82.45230103
rwrist  0.0006954420824 -0.004670973402 -173.6699982
rhand  -1.776248203e-031 6.287889957 -7.794680119
rfingers  -90 -7.125020027 -90
rthumb  -84.7647377 -8.437238116 -58.01596751
rfemur  -10.60107708 14.9300518 12.95827961
rtibia  0.09371755272 -0.7386650443 18.05060959
rfoot  1.253794312 -21.40950394 -36.06077194
rtoes  4.127164727 19.58661497 -102.1473877
lfemur  -4.105991364 -15.87454319 -21.88331032
ltibia  6.135220051 0.2086510509 8.286891937
lfoot  0.2593714297 -22.91422844 35.45573425
ltoes  -8.464967012 -18.18710356 -115.4927973
345
root  34.83240022 36.57252394 -14.2206973 9.398879051 -3.435945511 3.201566696
lowerback  -8.293069839 -0.4329760075 -0.3304176331
upperback  -4.024590015 -0.08084960282 -3.292237759
thorax  0.4815149903 0.1186029986 -3.22461009
lowerneck  -14.95499992 -4.253739834 -3.148649931
upperneck  17.05800056 -6.213290215 7.198880196
head  8.084659576 -2.295059919 2.221590042
lclavicle  0 -4.497500157e-015 -2.743230041e-014
lhumerus  -48.35919952 30.54809952 62.65159988
lradius  -0.02562745474 -6.507048965e-006 30.06500053
lwrist  3.192251654e-007 -3.790274832e-007 -27.64450073
lhand  -0 -36.83909988 -10.6626997
lfingers  90 7.125020027 -90
lthumb  94.78491835 -25.50092582 101.0027643
rclavicle  0 -4.497500157e-015 -2.743230041e-014
rhumerus  -50.94290161 -25.70959854 -54.15209961
rradius  -5.16745672e-007 2.214343908e-008 80.95739746
rwrist  0.0006954420824 -0.004670973402 -172.8190002
rhand  -1.77584623e-031 6.169069767 -7.775509834
rfingers  -90 -7.125020027 -90
rthumb  -84.78306999 -8.445004404 -58.13016795
rfemur  -10.562644 14.90880871 12.95518684
rtibia  0.1084530801 -0.7699956894 18.0028801
rfoot  1.291261911 -21.47045517 -35.96405792
rtoes  4.093974866 19.5933172 -102.0483982
lfemur  -4.087305546 -15.90117836 -21.88995552
ltibia  6.138703346 0.1611125767 8.295184135
lfoot  0.2528420091 -22.81152153 35.47930527
ltoes  -8.495921381 -18.17304939 -115.5920086
346
root  34.83047185 36.5732208 -14.21853764 9.413202286 -3.479674101 3.204533339
lowerback  -8.277700424 -0.4270800352 -0.3012646437
upperback  -4.028429985 -0.07687269896 -3.292368889
thorax  0.4691759944 0.1197040007 -3.231460094
lowerneck  -14.89770031 -4.237520218 -3.110879898
upperneck  17.00440025 -6.192940235 7.174870014
head  8.053350449 -2.288419962 2.210289955
lclavicle  0 -4.497500157e-015 -2.743230041e-014
lhumerus  -48.25910187 30.46910095 62.73249817
lradius  -0.02182817087 -6.507048965e-006 30.05660057
lwrist  3.192251654e-007 -3.790274832e-007 -27.5951004
lhand  -4.411044222e-031 -36.82030106 -10.59200001
lfingers  90 7.125020027 -90
lthumb  94.76120556 -25.43214571 100.9762751
rclavicle  0 -4.497500157e-015 -2.743230041e-014
rhumerus  -50.85490036 -25.9932003 -54.2723999
rradius  -5.16745672e-007 2.214343908e-008 79.41130066
rwrist  0.0006954420824 -0.004670973402 -171.9949951
rhand  -1.77348551e-031 5.417890072 -7.678780079
rfingers  -90 -7.125020027 -90
rthumb  -84.91057212 -8.474691709 -58.85417425
rfemur  -10.57734966 14.87308693 12.94321346
rtibia  0.1123096868 -0.8121728301 17.99483681
rfoot  1.299034953 -21.55311966 -35.90491867
rtoes  4.087228725 19.59467255 -102.0282816
lfemur  -4.177859306 -15.90553379 -21.85648155
ltibia  6.079045296 0.1402159333 8.415392876
lfoot  0.2542173266 -22.8054409 35.47372437
ltoes  -8.480366243 -18.18011983 -115.5421438
347
root  34.82372254 36.57836914 -14.21652516 9.532978058 -3.453352928 3.189651012
lowerback  -8.209640503 -0.4427060485 -0.2653204799
upperback  -3.971149921 -0.1079809964 -3.291209936
thorax  0.4890039861 0.1007919982 -3.25812006
lowerneck  -14.88679981 -4.204840183 -3.042700052
upperneck  16.94400024 -6.157419682 7.153779984
head  8.026510239 -2.271810055 2.196029902
lclavicle  0 -4.497500157e-015 -2.743230041e-014
lhumerus  -48.13589859 30.45779991 62.80950165
lradius  -0.0177969709 -6.507048965e-006 30.07896996
lwrist  3.192251654e-007 -3.790274832e-007 -27.54120064
lhand  -4.408027842e-031 -36.76789856 -10.62419987
lfingers  90 7.125020027 -90
lthumb  94.74348165 -25.46559309 100.9231345
rclavicle  0 -4.497500157e-015 -2.743230041e-014
rhumerus  -50.67720032 -26.35480118 -54.37559891
rradius  -5.16745672e-007 2.214343908e-008 77.72930145
rwrist  0.0006954420824 -0.004670973402 -171.4660034
rhand  -1.774410251e-031 5.724100113 -7.63781023
rfingers  -90 -7.125020027 -90
rthumb  -84.8165281 -8.530844554 -58.5527361
rfemur  -10.73501968 14.87702751 12.93898773
rtibia  0.1014786586 -0.7993121743 18.04515648
rfoot  1.262573481 -21.52292824 -35.95891953
rtoes  4.083820056 19.59535648 -102.0181177
lfemur  -4.42144537 -15.88751221 -21.73334694
ltibia  5.985600471 0.2026768327 8.581084251
lfoot  0.2791223824 -22.95696259 35.46664047
ltoes  -8.492414446 -18.17464484 -115.5807648
348
root  34.82721284 36.5768733 -14.21657773 9.490948677 -3.568300962 3.192734241
lowerback  -8.298851013 -0.4115540385 -0.2516823411
upperback  -3.956290007 -0.06578619778 -3.286789894
thorax  0.5558009744 0.1220299974 -3.258039951
lowerneck  -14.93290043 -4.184490204 -2.994309902
upperneck  16.95599937 -6.137729645 7.13684988
head  8.035590172 -2.259809971 2.184159994
lclavicle  0 -4.497500157e-015 -2.743230041e-014
lhumerus  -47.94820023 30.38209915 62.9294014
lradius  -0.01360862609 -6.507048965e-006 30.05760765
lwrist  3.192251654e-007 -3.790274832e-007 -27.41320038
lhand  -4.406361945e-031 -36.73889923 -10.68739986
lfingers  90 7.125020027 -90
lthumb  94.74317799 -25.52868654 100.897862
rclavicle  0 -4.497500157e-015 -2.743230041e-014
rhumerus  -50.54550171 -26.7390976 -54.41289902
rradius  -5.16745672e-007 2.214343908e-008 76.10630035
rwrist  0.0006954420824 -0.004670973402 -170.9120026
rhand  -1.775804263e-031 6.156529903 -7.649740219
rfingers  -90 -7.125020027 -90
rthumb  -84.71896439 -8.550893168 -58.13241475
rfemur  -10.71261692 14.91088486 12.93762112
rtibia  0.1062032208 -0.7967548966 18.05633354
rfoot  1.282344341 -21.52620506 -35.87238312
rtoes  4.115949166 19.58888615 -102.1139334
lfemur  -4.340545654 -15.8303175 -21.78270721
ltibia  6.007282257 0.1687347293 8.531089783
lfoot  0.265444994 -22.87829208 35.48989487
ltoes  -8.492869012 -18.17443809 -115.5822222
